<svg xmlns="http://www.w3.org/2000/svg" width="12" height="12" viewBox="0 0 12 12">
  <path id="edit_FILL0_wght400_GRAD0_opsz24" d="M121.333-829.333h.95l6.517-6.517-.95-.95-6.517,6.517ZM120-828v-2.833l8.8-8.783a1.5,1.5,0,0,1,.442-.283,1.317,1.317,0,0,1,.508-.1,1.38,1.38,0,0,1,.517.1,1.171,1.171,0,0,1,.433.3l.917.933a1.09,1.09,0,0,1,.292.433,1.444,1.444,0,0,1,.092.5,1.421,1.421,0,0,1-.092.508,1.252,1.252,0,0,1-.292.442L122.833-828Zm10.667-9.733-.933-.933Zm-2.35,1.417-.467-.483.95.95Z" transform="translate(-120 840)" fill="#777c96"/>
</svg>
