<svg xmlns="http://www.w3.org/2000/svg" width="4.322" height="17.289" viewBox="0 0 4.322 17.289">
  <path id="more_vert_FILL0_wght400_GRAD0_opsz24" d="M402.161-782.711a2.081,2.081,0,0,1-1.526-.635,2.081,2.081,0,0,1-.635-1.526,2.081,2.081,0,0,1,.635-1.526,2.081,2.081,0,0,1,1.526-.635,2.081,2.081,0,0,1,1.526.635,2.081,2.081,0,0,1,.635,1.526,2.081,2.081,0,0,1-.635,1.526A2.081,2.081,0,0,1,402.161-782.711Zm0-6.483a2.081,2.081,0,0,1-1.526-.635,2.081,2.081,0,0,1-.635-1.526,2.081,2.081,0,0,1,.635-1.526,2.081,2.081,0,0,1,1.526-.635,2.081,2.081,0,0,1,1.526.635,2.081,2.081,0,0,1,.635,1.526,2.081,2.081,0,0,1-.635,1.526A2.081,2.081,0,0,1,402.161-789.194Zm0-6.483a2.081,2.081,0,0,1-1.526-.635,2.081,2.081,0,0,1-.635-1.526,2.081,2.081,0,0,1,.635-1.526,2.081,2.081,0,0,1,1.526-.635,2.081,2.081,0,0,1,1.526.635,2.081,2.081,0,0,1,.635,1.526,2.081,2.081,0,0,1-.635,1.526A2.081,2.081,0,0,1,402.161-795.678Z" transform="translate(-400 800)" fill="#777c96" opacity="0.5"/>
</svg>
