<svg xmlns="http://www.w3.org/2000/svg" width="50.6" height="50.1" viewBox="0 0 33.6 30.1">
  <g id="Group_8" data-name="Group 8" transform="translate(-177.434 -176.68)">
    <rect id="Rectangle_2" data-name="Rectangle 2" width="24.027" height="21.254" rx="4" transform="translate(182.22 185.261)" fill="#f7fbff"/>
    <g id="robot" transform="translate(177.434 176.68)">
      <path id="Path_1" data-name="Path 1" d="M19.2,24.1a2.1,2.1,0,1,0-2.1,2.1A2.1,2.1,0,0,0,19.2,24.1Zm-2.1.7a.7.7,0,1,1,.7-.7A.7.7,0,0,1,17.1,24.8Z" transform="translate(-4.5 -8)" fill="#238de9"/>
      <path id="Path_2" data-name="Path 2" d="M29.1,22a2.1,2.1,0,1,0,2.1,2.1A2.1,2.1,0,0,0,29.1,22Zm0,2.8a.7.7,0,1,1,.7-.7A.7.7,0,0,1,29.1,24.8Z" transform="translate(-8.1 -8)" fill="#238de9"/>
      <path id="Path_3" data-name="Path 3" d="M25.38,33.877a7.036,7.036,0,0,1-6.36,0,.7.7,0,0,0-.64,1.246,8.409,8.409,0,0,0,7.64,0,.7.7,0,1,0-.64-1.246Z" transform="translate(-5.4 -11.54)" fill="#238de9"/>
      <path id="Path_4" data-name="Path 4" d="M31.5,16H29.4V13.9a3.5,3.5,0,0,0-3.5-3.5H17.5V7.5a2.8,2.8,0,1,0-1.4,0v2.9H7.7a3.5,3.5,0,0,0-3.5,3.5V16H2.1A2.1,2.1,0,0,0,0,18.1v6.3a2.1,2.1,0,0,0,2.1,2.1H4.2v2.1a3.5,3.5,0,0,0,3.5,3.5H25.9a3.5,3.5,0,0,0,3.5-3.5V26.5h2.1a2.1,2.1,0,0,0,2.1-2.1V18.1A2.1,2.1,0,0,0,31.5,16ZM15.4,4.8a1.4,1.4,0,1,1,1.4,1.4A1.4,1.4,0,0,1,15.4,4.8ZM2.1,25.1a.7.7,0,0,1-.7-.7V18.1a.7.7,0,0,1,.7-.7H4.2v7.7ZM28,28.6a2.1,2.1,0,0,1-2.1,2.1H7.7a2.1,2.1,0,0,1-2.1-2.1V13.9a2.1,2.1,0,0,1,2.1-2.1H25.9A2.1,2.1,0,0,1,28,13.9Zm4.2-4.2a.7.7,0,0,1-.7.7H29.4V17.4h2.1a.7.7,0,0,1,.7.7Z" transform="translate(0 -2)" fill="#238de9"/>
    </g>
  </g>
</svg>
