<svg xmlns="http://www.w3.org/2000/svg" width="34" height="34" viewBox="0 0 34 34">
  <g id="Group_42" data-name="Group 42" transform="translate(-167.693 -167.693)">
    <path id="Rectangle_1" data-name="Rectangle 1" d="M17,0h0A17,17,0,0,1,34,17V30.6A3.4,3.4,0,0,1,30.6,34H17A17,17,0,0,1,0,17v0A17,17,0,0,1,17,0Z" transform="translate(167.693 167.693)" fill="#238de9"/>
    <g id="Group_4" data-name="Group 4" transform="translate(175.133 174.518)">
      <rect id="Rectangle_2" data-name="Rectangle 2" width="15" height="13" rx="4" transform="translate(2.559 5.175)" fill="#f7fbff"/>
      <g id="robot" transform="translate(0 0)">
        <path id="Path_1" data-name="Path 1" d="M17.529,23.264a1.264,1.264,0,1,0-1.264,1.264A1.266,1.266,0,0,0,17.529,23.264Zm-1.264.421a.421.421,0,1,1,.421-.421A.422.422,0,0,1,16.264,23.686Z" transform="translate(-8.678 -13.57)" fill="#238de9"/>
        <path id="Path_2" data-name="Path 2" d="M28.264,22a1.264,1.264,0,1,0,1.264,1.264A1.266,1.266,0,0,0,28.264,22Zm0,1.686a.421.421,0,1,1,.421-.421A.422.422,0,0,1,28.264,23.686Z" transform="translate(-15.62 -13.57)" fill="#238de9"/>
        <path id="Path_3" data-name="Path 3" d="M22.443,33.846a4.237,4.237,0,0,1-3.83,0,.422.422,0,1,0-.385.75,5.063,5.063,0,0,0,4.6,0,.422.422,0,1,0-.385-.75Z" transform="translate(-10.413 -20.396)" fill="#238de9"/>
        <path id="Path_4" data-name="Path 4" d="M18.967,10.43H17.7V9.165A2.11,2.11,0,0,0,15.6,7.058H10.537V5.312a1.686,1.686,0,1,0-.843,0V7.058H4.636A2.11,2.11,0,0,0,2.529,9.165V10.43H1.264A1.266,1.266,0,0,0,0,11.694v3.793a1.266,1.266,0,0,0,1.264,1.264H2.529v1.264a2.11,2.11,0,0,0,2.107,2.107H15.6A2.11,2.11,0,0,0,17.7,18.017V16.752h1.264a1.266,1.266,0,0,0,1.264-1.264V11.694A1.266,1.266,0,0,0,18.967,10.43ZM9.273,3.686a.843.843,0,1,1,.843.843A.844.844,0,0,1,9.273,3.686ZM1.264,15.909a.422.422,0,0,1-.421-.421V11.694a.422.422,0,0,1,.421-.421H2.529v4.636Zm15.6,2.107A1.266,1.266,0,0,1,15.6,19.281H4.636a1.266,1.266,0,0,1-1.264-1.264V9.165A1.266,1.266,0,0,1,4.636,7.9H15.6A1.266,1.266,0,0,1,16.86,9.165Zm2.529-2.529a.422.422,0,0,1-.421.421H17.7V11.273h1.264a.422.422,0,0,1,.421.421Z" transform="translate(0 -2)" fill="#fff"/>
      </g>
    </g>
  </g>
</svg>
