<svg xmlns="http://www.w3.org/2000/svg" width="13.069" height="15.974" viewBox="0 0 13.069 15.974">
  <g id="delete_2_" data-name="delete (2)" transform="translate(-3 -1)">
    <path id="Path_6050" data-name="Path 6050" d="M14.891,7a.726.726,0,0,0-.726.726v8.125a1.394,1.394,0,0,1-1.459,1.313H6.911a1.394,1.394,0,0,1-1.459-1.313V7.726A.726.726,0,0,0,4,7.726v8.125a2.845,2.845,0,0,0,2.911,2.766h5.794a2.845,2.845,0,0,0,2.911-2.766V7.726A.726.726,0,0,0,14.891,7Z" transform="translate(-0.274 -1.644)" fill="#7d7d7d"/>
    <path id="Path_6051" data-name="Path 6051" d="M15.343,3.178h-2.9V1.726A.726.726,0,0,0,11.713,1H7.356a.726.726,0,0,0-.726.726V3.178h-2.9a.726.726,0,0,0,0,1.452H15.343a.726.726,0,1,0,0-1.452Zm-7.26,0V2.452h2.9v.726Z" fill="#7d7d7d"/>
    <path id="Path_6052" data-name="Path 6052" d="M10.452,14.808V9.726A.726.726,0,1,0,9,9.726v5.082a.726.726,0,0,0,1.452,0Z" transform="translate(-1.644 -2.192)" fill="#7d7d7d"/>
    <path id="Path_6053" data-name="Path 6053" d="M14.452,14.808V9.726a.726.726,0,1,0-1.452,0v5.082a.726.726,0,0,0,1.452,0Z" transform="translate(-2.74 -2.192)" fill="#7d7d7d"/>
  </g>
</svg>
