<svg id="Group_162002" data-name="Group 162002" xmlns="http://www.w3.org/2000/svg" width="16" height="16" viewBox="0 0 16 16">
  <path id="Path_996" data-name="Path 996" d="M15.063.938a3.2,3.2,0,0,0-4.527,0L1.589,9.884a.625.625,0,0,0-.16.274L.023,15.207a.625.625,0,0,0,.773.769l5.049-1.434A.625.625,0,0,0,6.117,13.5L2.934,10.307,10.35,2.891l2.758,2.758L7.431,11.311a.625.625,0,0,0,.883.885l6.749-6.731a3.2,3.2,0,0,0,0-4.527ZM4.481,13.63l-2.955.839L2.354,11.5Zm9.7-9.049-.186.186L11.234,2.007l.186-.186a1.951,1.951,0,0,1,2.76,2.759Z" transform="translate(0)" fill="#7d7d7d"/>
</svg>
