<svg id="download_5_" data-name="download (5)" xmlns="http://www.w3.org/2000/svg" width="12.63" height="7.46" viewBox="0 0 12.63 7.46">
  <g id="Group_38" data-name="Group 38">
    <path id="Path_212" data-name="Path 212" d="M12.428,101.322l-.414-.417a.693.693,0,0,0-.977,0l-4.719,4.72L1.593,100.9a.693.693,0,0,0-.977,0l-.414.414a.692.692,0,0,0,0,.977l5.625,5.646a.706.706,0,0,0,.49.222h0a.706.706,0,0,0,.488-.222l5.62-5.63a.7.7,0,0,0,.2-.493A.691.691,0,0,0,12.428,101.322Z" transform="translate(0 -100.698)" fill="#aeaeae"/>
  </g>
</svg>
