<svg xmlns="http://www.w3.org/2000/svg" width="12.063" height="12.107" viewBox="0 0 12.063 12.107">
  <g id="expand-arrows" transform="translate(-0.994)">
    <g id="Group_9" data-name="Group 9" transform="translate(0.994)">
      <path id="Path_6" data-name="Path 6" d="M6.564,285.884l-.456-.456a.485.485,0,0,0-.683,0L2.6,288.256v-2.4a.483.483,0,0,0-.482-.482H1.476a.483.483,0,0,0-.482.482v4.663a.467.467,0,0,0,.142.34.478.478,0,0,0,.34.142H6.139a.483.483,0,0,0,.482-.482v-.643a.483.483,0,0,0-.482-.482h-2.4l2.826-2.826A.482.482,0,0,0,6.564,285.884Z" transform="translate(-0.994 -278.892)" fill="#238de9"/>
      <path id="Path_7" data-name="Path 7" d="M289.787.142a.479.479,0,0,0-.34-.142h-4.663a.483.483,0,0,0-.482.482v.643a.483.483,0,0,0,.482.482h2.4l-2.83,2.824a.485.485,0,0,0,0,.683l.456.456a.486.486,0,0,0,.683,0l2.828-2.826v2.4a.483.483,0,0,0,.482.482h.643a.483.483,0,0,0,.482-.482V.484A.489.489,0,0,0,289.787.142Z" transform="translate(-277.867)" fill="#238de9"/>
    </g>
  </g>
</svg>
