<svg xmlns="http://www.w3.org/2000/svg" width="21.406" height="24.471" viewBox="0 0 21.406 24.471">
  <path id="notification-bell" d="M11.671.5A8.532,8.532,0,0,0,3.234,9.106v5.312a2.389,2.389,0,0,1-.387,1.309L1.886,17.2a2.37,2.37,0,0,0-.1,2.427,2.278,2.278,0,0,0,2.027,1.216H7.838a3.912,3.912,0,0,0,7.666,0h4.022a2.278,2.278,0,0,0,2.027-1.216,2.369,2.369,0,0,0-.1-2.425l-.96-1.473a2.389,2.389,0,0,1-.387-1.309V9.106A8.532,8.532,0,0,0,11.671.5Zm0,21.907a2.352,2.352,0,0,1-2.214-1.565h4.427a2.352,2.352,0,0,1-2.214,1.565Zm8.473-4.352a.8.8,0,0,1,.033.826.732.732,0,0,1-.651.4H3.815a.732.732,0,0,1-.651-.4.8.8,0,0,1,.033-.827l.96-1.473A3.946,3.946,0,0,0,4.8,14.418V9.106a6.966,6.966,0,0,1,6.871-7.042,6.966,6.966,0,0,1,6.872,7.042v5.312a3.946,3.946,0,0,0,.642,2.163Z" transform="translate(-0.968)" fill="#fff" stroke="#fff" stroke-width="1"/>
</svg>
