<svg id="Group_160786" data-name="Group 160786" xmlns="http://www.w3.org/2000/svg" width="14.003" height="14.483" viewBox="0 0 14.003 14.483">
  <path id="search_9_" data-name="search (9)" d="M14.21,12.671,10.9,9.227a5.614,5.614,0,1,0-4.3,2.006,5.556,5.556,0,0,0,3.218-1.016l3.336,3.47a.733.733,0,1,0,1.056-1.016ZM6.6,1.465A4.151,4.151,0,1,1,2.449,5.617,4.156,4.156,0,0,1,6.6,1.465Z" transform="translate(-0.698 0.286)" fill="#a5a5a5"/>
  <path id="search_9_-_Outline" data-name="search (9) - Outline" d="M13.469,13.984a1.011,1.011,0,0,1-.734-.312l-3.169-3.3a5.851,5.851,0,0,1-3.178.931A5.909,5.909,0,1,1,11.067,9L14.2,12.259a1.019,1.019,0,0,1-.734,1.725ZM9.641,9.628l3.506,3.647a.446.446,0,1,0,.643-.619L10.3,9.026l.166-.2a5.339,5.339,0,1,0-1.027.94Zm-3.254.213A4.438,4.438,0,1,1,10.825,5.4,4.443,4.443,0,0,1,6.387,9.841Zm0-8.3A3.865,3.865,0,1,0,10.252,5.4,3.869,3.869,0,0,0,6.387,1.538Z" transform="translate(-0.484 0.5)" fill="#a5a5a5"/>
</svg>
