<svg id="_x30_8" xmlns="http://www.w3.org/2000/svg" width="22.379" height="22.376" viewBox="0 0 22.379 22.376">
  <path id="Path_5805" data-name="Path 5805" d="M23.462,18.067A1.843,1.843,0,0,0,21.652,18l-7.666,3.371a2,2,0,0,0-2-1.974H8.725L7.361,18.033A.8.8,0,0,0,6.8,17.8H5.2a.8.8,0,0,0-.8-.8H2.8a.8.8,0,0,0,0,1.6h.8v5.595H2.8a.8.8,0,0,0,0,1.6H4.4a.8.8,0,0,0,.8-.8H6.608L10.261,26.8a5.483,5.483,0,0,0,2.438.583,5.243,5.243,0,0,0,3.208-1.1l7.658-5.065a1.871,1.871,0,0,0-.1-3.153Zm-.791,1.828L14.98,24.984a3.69,3.69,0,0,1-4.009.388l-3.82-1.894a.8.8,0,0,0-.355-.083H5.2v-4H6.464l1.364,1.366A.8.8,0,0,0,8.394,21h3.6a.4.4,0,1,1,0,.8l-2.8,0a.8.8,0,0,0,0,1.6h4a.8.8,0,0,0,.322-.068l8.843-3.892a.287.287,0,0,1,.29.006.273.273,0,0,1,.027.455Z" transform="translate(-2 -5.011)" fill="#02bc77"/>
  <path id="Path_5806" data-name="Path 5806" d="M10.027,10.8a.8.8,0,0,0,.081.609l1.613,2.768a.8.8,0,0,0,1.088.292l1.182-.676a5.764,5.764,0,0,0,.8.455v1.341a.8.8,0,0,0,.8.8h3.2a.8.8,0,0,0,.8-.8V14.247a5.782,5.782,0,0,0,.8-.455l1.182.676a.8.8,0,0,0,1.088-.292l1.613-2.768a.8.8,0,0,0-.293-1.1l-1.172-.671q.02-.228.02-.448t-.02-.448l1.172-.671a.8.8,0,0,0,.293-1.1L22.665,4.21a.8.8,0,0,0-1.088-.291L20.4,4.594a5.877,5.877,0,0,0-.8-.455V2.8a.8.8,0,0,0-.8-.8h-3.2a.8.8,0,0,0-.8.8V4.14a5.767,5.767,0,0,0-.8.455l-1.182-.677a.8.8,0,0,0-1.088.292L10.109,6.978a.8.8,0,0,0,.294,1.1l1.172.671q-.019.225-.019.448c0,.149.006.3.019.448l-1.172.671a.8.8,0,0,0-.375.487Zm3.2-.877a3.793,3.793,0,0,1,0-1.457.8.8,0,0,0-.389-.839l-.94-.538L12.7,5.7l.951.544a.8.8,0,0,0,.914-.084,4.125,4.125,0,0,1,1.291-.729.8.8,0,0,0,.535-.754V3.6h1.6V4.676a.8.8,0,0,0,.535.754,4.12,4.12,0,0,1,1.291.729.8.8,0,0,0,.914.084l.951-.544.809,1.387-.941.538a.8.8,0,0,0-.389.841,3.761,3.761,0,0,1,0,1.455.8.8,0,0,0,.389.841l.941.538-.809,1.387-.951-.544a.8.8,0,0,0-.914.084,4.121,4.121,0,0,1-1.291.729.8.8,0,0,0-.535.754v1.078h-1.6V13.71a.8.8,0,0,0-.535-.754,4.129,4.129,0,0,1-1.291-.729.8.8,0,0,0-.914-.084l-.951.544L11.9,11.3l.94-.538a.8.8,0,0,0,.389-.839Z" transform="translate(-3.606 -2)" fill="#02bc77"/>
  <path id="Path_5807" data-name="Path 5807" d="M18.4,12.8A2.4,2.4,0,1,0,16,10.4,2.4,2.4,0,0,0,18.4,12.8Zm0-3.2a.8.8,0,1,1-.8.8A.8.8,0,0,1,18.4,9.6Z" transform="translate(-4.811 -3.204)" fill="#02bc77"/>
</svg>
