<svg xmlns="http://www.w3.org/2000/svg" width="24.871" height="24.865" viewBox="0 0 24.871 24.865">
  <g id="Icon" transform="translate(0.1 0.1)">
    <path id="Path_2460" data-name="Path 2460" d="M13.582,24.194a.86.86,0,1,1,0,1.721H4.4A3.153,3.153,0,0,1,1.25,22.76V4.4A3.153,3.153,0,0,1,4.4,1.25h9.85a2,2,0,0,1,1.419.589L20.737,6.9a2,2,0,0,1,.589,1.419v4.114a.86.86,0,1,1-1.721,0V8.321a.287.287,0,0,0-.084-.2L14.457,3.055a.287.287,0,0,0-.2-.084H4.4A1.434,1.434,0,0,0,2.971,4.4V22.76A1.434,1.434,0,0,0,4.4,24.194Z" transform="translate(-1.25 -1.25)" fill="#fff" stroke="#fff" stroke-width="0.2" fill-rule="evenodd"/>
    <path id="Path_2461" data-name="Path 2461" d="M12.25,2.61a.86.86,0,1,1,1.721,0V6.626a.287.287,0,0,0,.287.287h4.015a.86.86,0,1,1,0,1.721H14.258A2.007,2.007,0,0,1,12.25,6.626Z" transform="translate(0.369 -1.176)" fill="#fff" stroke="#fff" stroke-width="0.2" fill-rule="evenodd"/>
    <path id="Path_2462" data-name="Path 2462" d="M6.11,11.471a.86.86,0,0,1,0-1.721h9.177a.86.86,0,1,1,0,1.721Z" transform="translate(-0.661 0.001)" fill="#fff" stroke="#fff" stroke-width="0.2" fill-rule="evenodd"/>
    <path id="Path_2463" data-name="Path 2463" d="M6.11,14.971a.86.86,0,1,1,0-1.721h5.162a.86.86,0,1,1,0,1.721Z" transform="translate(-0.661 0.516)" fill="#fff" stroke="#fff" stroke-width="0.2" fill-rule="evenodd"/>
    <circle id="Ellipse_8" data-name="Ellipse 8" cx="1.721" cy="1.721" r="1.721" transform="translate(17.335 17.064)" fill="#fff" stroke="#fff" stroke-width="0.2"/>
    <path id="Path_2465" data-name="Path 2465" d="M20.342,13.124s.407.981.406.981a4.878,4.878,0,0,1,.451.259l1.053-.138a.863.863,0,0,1,.759.288,5.906,5.906,0,0,1,1.132,1.961.86.86,0,0,1-.132.8s-.645.843-.645.842a4.907,4.907,0,0,1,0,.52l.645.843a.86.86,0,0,1,.132.8,5.906,5.906,0,0,1-1.132,1.961.863.863,0,0,1-.759.288s-1.053-.138-1.052-.139a4.78,4.78,0,0,1-.451.26l-.407.981a.858.858,0,0,1-.629.514,5.876,5.876,0,0,1-2.265,0,.858.858,0,0,1-.629-.514s-.407-.981-.406-.981a4.732,4.732,0,0,1-.451-.259l-1.053.138a.862.862,0,0,1-.759-.288,5.867,5.867,0,0,1-1.132-1.961.863.863,0,0,1,.131-.8s.646-.843.646-.842a4.907,4.907,0,0,1,0-.52l-.646-.843a.863.863,0,0,1-.131-.8,5.867,5.867,0,0,1,1.132-1.961.862.862,0,0,1,.759-.288s1.053.138,1.052.139a4.639,4.639,0,0,1,.451-.26l.407-.981a.858.858,0,0,1,.629-.514,5.876,5.876,0,0,1,2.265,0,.858.858,0,0,1,.629.514Zm-1.4,1.113a4.058,4.058,0,0,0-.718,0l-.349.839a.86.86,0,0,1-.466.465,3.052,3.052,0,0,0-.7.4.864.864,0,0,1-.636.171l-.9-.118a4.1,4.1,0,0,0-.359.623l.552.72a.862.862,0,0,1,.17.637,3.053,3.053,0,0,0,0,.805.862.862,0,0,1-.17.637s-.552.72-.552.722a4.088,4.088,0,0,0,.359.622l.9-.118a.864.864,0,0,1,.636.171,3.052,3.052,0,0,0,.7.4.86.86,0,0,1,.466.465l.349.839a3.952,3.952,0,0,0,.718,0l.349-.839a.86.86,0,0,1,.466-.465,3.077,3.077,0,0,0,.7-.4.864.864,0,0,1,.636-.171l.9.118a4.1,4.1,0,0,0,.359-.623l-.552-.72a.862.862,0,0,1-.17-.637,3.154,3.154,0,0,0,0-.805.862.862,0,0,1,.17-.637s.552-.72.552-.722A4.187,4.187,0,0,0,21.989,16l-.9.118a.864.864,0,0,1-.636-.171,3.077,3.077,0,0,0-.7-.4.86.86,0,0,1-.466-.465Z" transform="translate(0.475 0.406)" fill="#fff" stroke="#fff" stroke-width="0.2" fill-rule="evenodd"/>
  </g>
</svg>
