<svg xmlns="http://www.w3.org/2000/svg" width="16.022" height="19.977" viewBox="0 0 16.022 19.977">
  <g id="Layer_2" data-name="Layer 2" transform="translate(0.35 0.35)">
    <path id="Path_2451" data-name="Path 2451" d="M8.934,13.618a5.684,5.684,0,1,1,5.684-5.684,5.684,5.684,0,0,1-5.684,5.684Zm0-9.885a4.2,4.2,0,1,0,4.2,4.2A4.2,4.2,0,0,0,8.934,3.733Z" transform="translate(-1.273 -2.25)" fill="#4299e1" stroke="#4791ff" stroke-width="0.7"/>
    <path id="Path_2452" data-name="Path 2452" d="M14.842,21.641H2.98a1.732,1.732,0,0,1-1.73-1.73,7.661,7.661,0,1,1,15.322,0A1.732,1.732,0,0,1,14.842,21.641ZM8.911,13.733a6.185,6.185,0,0,0-6.178,6.178.248.248,0,0,0,.247.247H14.842a.248.248,0,0,0,.247-.247A6.185,6.185,0,0,0,8.911,13.733Z" transform="translate(-1.25 -2.365)" fill="#4299e1" stroke="#4791ff" stroke-width="0.7"/>
  </g>
</svg>
