<svg xmlns="http://www.w3.org/2000/svg" width="16.84" height="3.377" viewBox="0 0 16.84 3.377">
  <path id="Path_6054" data-name="Path 6054" d="M1295.18,342.377a1.13,1.13,0,0,1-.83-.35,1.162,1.162,0,0,1-.35-.842,1.19,1.19,0,0,1,1.19-1.185,1.136,1.136,0,0,1,.84.35,1.162,1.162,0,0,1,.35.842,1.148,1.148,0,0,1-.35.838A1.18,1.18,0,0,1,1295.18,342.377Zm6.74,0a1.136,1.136,0,0,1-.84-.35,1.162,1.162,0,0,1-.35-.842,1.148,1.148,0,0,1,.35-.838,1.18,1.18,0,0,1,.85-.347,1.2,1.2,0,0,1,1.18,1.192,1.19,1.19,0,0,1-1.19,1.185Zm6.73,0a1.169,1.169,0,0,1-.84-.35,1.153,1.153,0,0,1-.34-.842,1.111,1.111,0,0,1,.35-.838,1.182,1.182,0,0,1,2.02.845,1.111,1.111,0,0,1-.35.838A1.141,1.141,0,0,1,1308.65,342.377Z" transform="translate(-1293.5 -339.5)" fill="#707070" stroke="#707070" stroke-width="1"/>
</svg>
