<svg xmlns="http://www.w3.org/2000/svg" width="21.77" height="19.791" viewBox="0 0 21.77 19.791">
  <path id="robot" d="M8.916,14.864a.99.99,0,1,0,.99.99A.99.99,0,0,0,8.916,14.864Zm-6.927-.99a.99.99,0,0,0-.99.99v1.979a.99.99,0,0,0,1.979,0V14.864A.99.99,0,0,0,1.99,13.875Zm19.791,0a.99.99,0,0,0-.99.99v1.979a.99.99,0,0,0,1.979,0V14.864A.99.99,0,0,0,21.78,13.875ZM16.833,6.948H12.875V5.681a1.979,1.979,0,1,0-1.979,0V6.948H6.937A2.969,2.969,0,0,0,3.969,9.916v8.906a2.969,2.969,0,0,0,2.969,2.969h9.9A2.969,2.969,0,0,0,19.8,18.822V9.916A2.969,2.969,0,0,0,16.833,6.948ZM13.587,8.927l-.495,1.979H10.678l-.495-1.979Zm4.235,9.9a.99.99,0,0,1-.99.99h-9.9a.99.99,0,0,1-.99-.99V9.916a.99.99,0,0,1,.99-.99H8.144l.772,3.206a.99.99,0,0,0,.99.752h3.958a.99.99,0,0,0,.99-.752l.772-3.206h1.207a.99.99,0,0,1,.99.99Zm-2.969-3.958a.99.99,0,1,0,.99.99A.99.99,0,0,0,14.854,14.864Z" transform="translate(-1 -2)" fill="#f09c1e"/>
</svg>
