<svg xmlns="http://www.w3.org/2000/svg" width="20" height="18" viewBox="0 0 20 18">
  <g id="user-setting" transform="translate(-2 -3)">
    <path id="Path_2945" data-name="Path 2945" d="M9.457,5.19A2.5,2.5,0,1,0,8.5,10a1,1,0,0,1,0,2A4.5,4.5,0,1,1,13,7.5a1,1,0,0,1-2,0A2.5,2.5,0,0,0,9.457,5.19Z" fill="#4299e1" fill-rule="evenodd"/>
    <path id="Path_2946" data-name="Path 2946" d="M7,15a3,3,0,0,0-3,3v1H8.5a1,1,0,0,1,0,2H3a1,1,0,0,1-1-1V18a5,5,0,0,1,5-5,1,1,0,0,1,0,2Z" fill="#4299e1" fill-rule="evenodd"/>
    <path id="Path_2947" data-name="Path 2947" d="M21.5,14H20.38a4.441,4.441,0,0,0-.579-1.387l.8-.8a.5.5,0,0,0,0-.707l-.707-.707a.5.5,0,0,0-.707,0l-.8.8A4.443,4.443,0,0,0,17,10.62V9.5a.5.5,0,0,0-.5-.5h-1a.5.5,0,0,0-.5.5v1.12a4.441,4.441,0,0,0-1.387.579l-.8-.8a.5.5,0,0,0-.707,0l-.707.707a.5.5,0,0,0,0,.707l.8.8A4.443,4.443,0,0,0,11.62,14H10.5a.5.5,0,0,0-.5.5v1a.5.5,0,0,0,.5.5h1.12a4.441,4.441,0,0,0,.579,1.387l-.8.8a.5.5,0,0,0,0,.707l.707.707a.5.5,0,0,0,.707,0l.8-.8A4.443,4.443,0,0,0,15,19.38V20.5a.5.5,0,0,0,.5.5h1a.5.5,0,0,0,.5-.5V19.38a4.441,4.441,0,0,0,1.387-.579l.8.8a.5.5,0,0,0,.707,0l.707-.707a.5.5,0,0,0,0-.707l-.8-.8A4.443,4.443,0,0,0,20.38,16H21.5a.5.5,0,0,0,.5-.5v-1a.5.5,0,0,0-.5-.5ZM16,17.5a2.5,2.5,0,1,1,1.768-.732A2.5,2.5,0,0,1,16,17.5Z" fill="#4299e1"/>
  </g>
</svg>
