<svg xmlns="http://www.w3.org/2000/svg" width="15.739" height="19.696" viewBox="0 0 15.739 19.696">
  <g id="Layer_2" data-name="Layer 2" transform="translate(0.2 0.2)">
    <path id="Path_2451" data-name="Path 2451" d="M8.94,13.63a5.69,5.69,0,1,1,5.69-5.69,5.69,5.69,0,0,1-5.69,5.69Zm0-9.9A4.206,4.206,0,1,0,13.146,7.94,4.206,4.206,0,0,0,8.94,3.734Z" transform="translate(-1.271 -2.25)" fill="#fff" stroke="#fff" stroke-width="0.4"/>
    <path id="Path_2452" data-name="Path 2452" d="M14.857,21.651H2.982A1.734,1.734,0,0,1,1.25,19.919a7.669,7.669,0,1,1,15.339,0A1.734,1.734,0,0,1,14.857,21.651ZM8.919,13.734a6.192,6.192,0,0,0-6.185,6.185.248.248,0,0,0,.247.247H14.857a.248.248,0,0,0,.247-.247,6.192,6.192,0,0,0-6.185-6.185Z" transform="translate(-1.25 -2.354)" fill="#fff" stroke="#fff" stroke-width="0.4"/>
  </g>
</svg>
