<svg xmlns="http://www.w3.org/2000/svg" width="11.897" height="11.92" viewBox="0 0 11.897 11.92">
  <path id="pencil" d="M8.172,7.58a.465.465,0,1,0-.66-.655L4.723,9.735,2.681,7.687,6.69,3.664l2.36,2.36a.465.465,0,0,0,.657,0L9.727,6l2.154-2.12,0,0a1.5,1.5,0,0,0,.439-1.588A3.371,3.371,0,0,0,11.412.987,3.372,3.372,0,0,0,10.1.075a1.5,1.5,0,0,0-1.589.44L1.681,7.373a.464.464,0,0,0-.119.2L.517,11.332a.465.465,0,0,0,.575.572l3.721-1.057a.463.463,0,0,0,.245-.129ZM9.824.961a2.784,2.784,0,0,1,.931.683,2.782,2.782,0,0,1,.683.931.577.577,0,0,1-.209.648l-.609.6L8.572,1.776l.6-.6A.578.578,0,0,1,9.824.961ZM7.916,2.434l2.04,2.04-.575.566L7.347,3.006Zm-5.39,8.1-.641-.644.366-1.314,1.582,1.587Zm9.872.906a.465.465,0,0,1-.465.465H6.285a.465.465,0,1,1,0-.93h5.648A.465.465,0,0,1,12.4,11.436Zm0,0" transform="translate(-0.5 -0.001)" fill="#238de9"/>
</svg>
